<?xml version="1.0" encoding="UTF-8"?>
<svg width="37px" height="28px" viewBox="0 0 37 28" version="1.1" xmlns="http://www.w3.org/2000/svg" xmlns:xlink="http://www.w3.org/1999/xlink">
    <title>开发云logo备份@40x</title>
    <g id="页面-1" stroke="none" stroke-width="1" fill="none" fill-rule="evenodd">
        <g id="开发云logo备份@40x" transform="translate(2.000000, 2.000000)" stroke="#1890FF">
            <path d="M22.8925411,9.29032948 L22.8925411,6.7248501 C22.8925411,3.01081795 19.8817231,-1.77635684e-15 16.167691,-1.77635684e-15 C12.4536588,-1.77635684e-15 9.44284085,3.01081795 9.44284085,6.7248501 L9.44284085,7.87271787 L9.44284085,7.87271787 L7.66157921,7.87271787 C3.43020585,7.87271787 0,11.3029237 0,15.5342971 C0,19.7656704 3.43020585,23.1958763 7.66157921,23.1958763 L23.6762383,23.1958763 L23.6762383,23.1958763" id="路径-28" stroke-width="4" stroke-linecap="round"></path>
            <path d="M33.2652638,20.4086185 C33.0827033,20.2352897 32.8345087,20.1392132 32.5943359,20.1433691 C32.3478429,20.1482585 32.1246865,20.2509357 31.9659488,20.4335544 C30.544846,22.0690553 28.0684903,22.2455623 27.0696344,22.2455623 C25.2163178,22.2455623 23.798132,21.7732472 22.8544575,20.8423074 C21.9579423,19.9578168 21.4880498,18.6552834 21.4571774,16.9706441 C21.3852228,13.0654885 23.5839699,9.02587465 27.388082,9.02587465 C29.2051781,9.02587465 30.6155851,10.3220519 31.1374989,10.8794423 C31.3188438,11.0728177 31.5699556,11.1842958 31.8273877,11.1850292 C32.0860352,11.1921188 32.3245063,11.0764847 32.4864041,10.8845762 L32.6344458,10.7085581 C32.938308,10.3486991 33.0754106,9.88371809 33.0199862,9.39991297 C32.9645617,8.91195187 32.7209857,8.46579505 32.3347161,8.14431767 C31.4027098,7.36812705 29.8184937,6.44329897 27.5648083,6.44329897 C25.2231243,6.44329897 22.9103681,7.52654327 21.2191925,9.41555902 C19.4426923,11.4001623 18.4936698,14.1025281 18.5476357,17.0241829 C18.5906626,19.3679119 19.3554231,21.3390694 20.7597528,22.7249669 C22.2681249,24.2132972 24.4785403,25 27.152528,25 C30.2896017,25 32.2338338,24.066371 33.3124232,23.2830908 C33.7300514,22.9799486 33.9801908,22.5020108 33.9989087,21.9720009 C34.0173836,21.4397908 33.8005475,20.9180929 33.404068,20.5408765 L33.2652638,20.4086185 Z" id="Fill-9457" fill="#1890FF" fill-rule="nonzero"></path>
        </g>
    </g>
</svg>